<svg xmlns="http://www.w3.org/2000/svg" viewBox="0 0 64 64" role="img" aria-label="OpsPulse logo">
  <defs>
    <linearGradient id="g" x1="0" y1="0" x2="1" y2="1">
      <stop offset="0%" stop-color="#12b981"/>
      <stop offset="100%" stop-color="#0ea5e9"/>
    </linearGradient>
  </defs>
  <rect x="2" y="2" width="60" height="60" rx="14" fill="#090b10" stroke="url(#g)" stroke-width="3"/>
  <path d="M18 32c0-7.7 6.3-14 14-14s14 6.3 14 14-6.3 14-14 14S18 39.7 18 32Zm7 0c0 3.9 3.1 7 7 7s7-3.1 7-7-3.1-7-7-7-7 3.1-7 7Z" fill="url(#g)"/>
  <path d="M50 18h-5v28h5c7.2 0 12-4.8 12-14s-4.8-14-12-14Zm0 7c2.9 0 5 2 5 7s-2.1 7-5 7v-14Z" transform="translate(-4 0)" fill="#e2e8f0"/>
</svg>
